<svg width="108px" height="108px" viewBox="0 0 108 108" version="1.1" xmlns="http://www.w3.org/2000/svg" xmlns:xlink="http://www.w3.org/1999/xlink">
    <title>arrow.up.right.circle.fill</title>
    <g id="Page-1" stroke="none" stroke-width="1" fill="none" fill-rule="evenodd">
        <g class="fill" transform="translate(-36.000000, -51.000000)" fill="#000000" fill-rule="nonzero">
            <path d="M125.472656,158.871094 C137.777344,158.871094 143.871094,152.777344 143.871094,140.707031 L143.871094,69.1640625 C143.871094,57.09375 137.777344,51 125.472656,51 L54.3984375,51 C42.1523438,51 36,57.0351562 36,69.1640625 L36,140.707031 C36,152.835938 42.1523438,158.871094 54.3984375,158.871094 L125.472656,158.871094 Z M71.0976562,129.808594 C68.2265625,129.808594 66.4101562,127.933594 66.4101562,125.003906 C66.4101562,123.65625 66.9375,122.484375 67.9335938,121.546875 L99.9986572,89.3789062 L92.25,89.3789062 L80.4726562,89.3789062 C77.3671875,89.3789062 75.375,87.5039062 75.375,84.6328125 C75.375,81.7617188 77.3085938,79.9453125 80.3554688,79.9453125 L110.941406,79.9453125 C114.339844,79.9453125 116.332031,81.4101562 116.332031,85.2773438 L116.332031,115.6875 C116.332031,118.734375 114.515625,120.84375 111.644531,120.84375 C108.773438,120.84375 106.898438,118.910156 106.898438,115.863281 L106.898438,104.671875 L106.898437,96.0435791 L74.7890625,128.285156 C73.7929688,129.28125 72.6796875,129.808594 71.0976562,129.808594 Z" id="arrow.up.right.circle.fill"></path>
        </g>
    </g>
</svg>