<?xml version="1.0" encoding="UTF-8"?>
<svg width="131px" height="113px" viewBox="0 0 131 113" version="1.1" xmlns="http://www.w3.org/2000/svg" xmlns:xlink="http://www.w3.org/1999/xlink">
    <!-- Generator: Sketch 61.2 (89653) - https://sketch.com -->
    <title>briefcase.fill</title>
    <desc>Created with Sketch.</desc>
    <g id="Page-1" stroke="none" stroke-width="1" fill="none" fill-rule="evenodd">
        <g id="asdf" transform="translate(-1002.000000, -48.000000)" class="fill" fill="#000000" fill-rule="nonzero">
            <path d="M1132.04102,102.058594 L1132.04102,86.9414062 C1132.04102,75.5742188 1126.00586,69.7734375 1114.63867,69.7734375 L1102.2168,69.7734375 L1102.2168,65.1445312 C1102.2168,53.71875 1096.5332,48.6796875 1085.63477,48.6796875 L1049.36523,48.6796875 C1039.05273,48.6796875 1032.7832,53.71875 1032.7832,65.1445312 L1032.7832,69.7734375 L1020.36133,69.7734375 C1009.58008,69.7734375 1002.95898,75.5742188 1002.95898,86.9414062 L1002.95898,102.058594 L1132.04102,102.058594 Z M1093.13477,69.7734375 L1041.86523,69.7734375 L1041.86523,64.5 C1041.86523,59.6367188 1044.32617,57.1757812 1049.24805,57.1757812 L1085.75195,57.1757812 C1090.67383,57.1757812 1093.13477,59.6367188 1093.13477,64.5 L1093.13477,69.7734375 Z M1114.63867,160.769531 C1126.00586,160.769531 1132.04102,155.027344 1132.04102,143.601562 L1132.04102,110.027344 L1091.02539,110.027344 L1091.02539,113.484375 C1091.02539,118.289062 1088.21289,121.042969 1083.34961,121.042969 L1051.41602,121.042969 C1046.55273,121.042969 1043.79883,118.289062 1043.79883,113.484375 L1043.79883,110.027344 L1002.95898,110.027344 L1002.95898,143.601562 C1002.95898,155.027344 1008.99414,160.769531 1020.36133,160.769531 L1114.63867,160.769531 Z" id="briefcase.fill"></path>
        </g>
    </g>
</svg>