<svg width="30px" height="105px" viewBox="0 0 30 105" version="1.1" xmlns="http://www.w3.org/2000/svg" xmlns:xlink="http://www.w3.org/1999/xlink">
    <title>chevron.compact.right</title>
    <g id="Page-1" stroke="none" stroke-width="1" fill="none" fill-rule="evenodd">
        <g id="-" class="fill" transform="translate(-153.000000, -52.000000)" fill="#000000" fill-rule="nonzero">
            <path d="M159.474609,156.785156 C161.642578,156.785156 163.634766,155.320312 164.513672,153.035156 L180.216797,113.074219 C181.271484,110.378906 182.560547,107.097656 182.560547,104.519531 C182.560547,101.941406 181.271484,98.6601562 180.216797,95.9648438 L164.513672,56.0039062 C163.634766,53.71875 161.642578,52.3125 159.474609,52.3125 C156.017578,52.3125 153.439453,54.8320312 153.439453,58.2304688 C153.439453,59.9296875 154.435547,62.2734375 154.962891,63.796875 L170.958984,104.519531 L154.962891,145.242188 C154.435547,146.765625 153.439453,149.050781 153.439453,150.808594 C153.439453,154.265625 156.017578,156.785156 159.474609,156.785156 Z" id="chevron.compact.right"></path>
        </g>
    </g>
</svg>