<svg width="93" height="113" viewBox="0 0 93 113" fill="none" xmlns="http://www.w3.org/2000/svg">
<path d="M76.6249 90.8091H79.2057C88.4167 90.8091 93 86.1397 93 76.8453V13.9638C93 4.66942 88.3722 0 79.2057 0H36.2655C27.099 0 22.4713 4.66942 22.4713 13.9638V16.1429H28.256C34.5301 16.1429 39.5139 17.9217 44.4976 22.9024L69.7722 48.2062C74.756 53.2314 76.6249 58.39 76.6249 64.438V90.8091ZM46.9005 15.6982C44.9426 15.6982 44.0526 14.4085 44.0526 13.0744V12.1405C44.0526 10.7619 44.9426 9.51673 46.9005 9.51673H68.5708C70.5287 9.51673 71.4187 10.7619 71.4187 12.1405V13.0744C71.4187 14.4085 70.5287 15.6982 68.5708 15.6982H46.9005ZM13.7943 113H56.7789C65.9455 113 70.5287 108.331 70.5287 99.0362V63.2373H38.3569C32.6167 63.2373 29.9469 60.5246 29.9469 54.8324V22.1909H13.7943C4.62775 22.1909 0 26.8603 0 36.1547V99.0362C0 108.375 4.58325 113 13.7943 113ZM38.3124 57.1448H68.2148C67.7254 55.4105 66.5239 53.8095 64.566 51.7639L41.3828 28.2389C39.4694 26.2377 37.734 25.037 35.9986 24.5478V54.8768C35.9986 56.3888 36.7995 57.1448 38.3124 57.1448Z" fill="black"/>
</svg>
