<?xml version="1.0" encoding="UTF-8"?>
<svg width="137px" height="124px" viewBox="0 0 137 124" version="1.1" xmlns="http://www.w3.org/2000/svg" xmlns:xlink="http://www.w3.org/1999/xlink">
    <title>house.fill</title>
    <g id="Page-1" stroke="none" stroke-width="1" fill="none" fill-rule="evenodd">
        <g class="fill" id="asdf" transform="translate(-345.000000, -38.000000)" fill="#000000" fill-rule="nonzero">
            <path d="M476.957031,104.050781 C479.710938,104.050781 481.9375,102.351562 481.9375,99.5390625 C481.9375,97.78125 481.234375,96.6679688 480.179688,95.671875 L459.90625,77.2148438 L459.90625,42.5859375 C459.90625,40.0078125 458.207031,38.3671875 455.6875,38.3671875 L448.011719,38.3671875 C445.433594,38.3671875 443.734375,40.0078125 443.734375,42.5859375 L443.734375,62.5078125 L420.53125,41.296875 C418.421875,39.3632812 415.960938,38.4257812 413.5,38.4257812 C411.039062,38.4257812 408.578125,39.3632812 406.46875,41.296875 L346.820312,95.671875 C345.765625,96.6679688 345.0625,97.78125 345.0625,99.5390625 C345.0625,102.351562 347.289062,104.050781 350.042969,104.050781 C351.683594,104.050781 353.089844,103.230469 354.261719,102.058594 L411.449219,49.96875 C412.09375,49.3242188 412.796875,49.0898438 413.5,49.0898438 C414.261719,49.0898438 414.90625,49.3242188 415.609375,49.96875 L472.738281,102.058594 C473.910156,103.230469 475.257812,104.050781 476.957031,104.050781 Z M398.734375,161.589844 L398.734375,119.929688 C398.734375,117.234375 400.492188,115.476562 403.1875,115.476562 L423.871094,115.476562 C426.625,115.476562 428.324219,117.234375 428.324219,119.929688 L428.324219,161.589844 L451.996094,161.589844 C460.257812,161.589844 465.179688,156.84375 465.179688,148.699219 L465.179688,105.808594 L415.375,60.984375 C414.789062,60.3984375 414.027344,60.1054688 413.382812,60.1054688 C412.738281,60.1054688 412.035156,60.3984375 411.390625,61.0429688 L361.820312,106.101562 L361.820312,148.699219 C361.820312,156.84375 366.742188,161.589844 375.003906,161.589844 L398.734375,161.589844 Z" id="house.fill"></path>
        </g>
    </g>
</svg>