<svg width="113" height="113" viewBox="0 0 113 113">
  <path d="M56.5 113C87.4257 113 113 87.4821 113 56.5C113 25.5743 87.4257 0 56.4437 0C25.5179 0 0 25.5743 0 56.5C0 87.4821 25.5743 113 56.5 113ZM35.0379 78.7508V54.8664C35.0379 50.8106 36.6715 48.8953 40.1077 48.6137V41.2906C40.1077 29.9118 47.1491 22.9267 56.5 22.9267C65.8509 22.9267 72.8923 29.9118 72.8923 41.2906V48.5573C76.3285 48.839 77.9621 50.8106 77.9621 54.8664V78.7508C77.9621 83.0882 76.0469 85.0598 71.991 85.0598H41.009C36.9531 85.0598 35.0379 83.0882 35.0379 78.7508ZM44.9521 48.501H68.0479V40.84C68.0479 32.9536 63.4287 27.6585 56.5 27.6585C49.5713 27.6585 44.9521 32.9536 44.9521 40.84V48.501Z"/>
</svg>
