<svg width="112px" height="112px" viewBox="0 0 112 112" version="1.1" xmlns="http://www.w3.org/2000/svg" xmlns:xlink="http://www.w3.org/1999/xlink">
    <title>magnifyingglass</title>
    <desc>Created with Sketch.</desc>
    <g id="Page-1" stroke="none" stroke-width="1" fill="none" fill-rule="evenodd">
        <g transform="translate(-622.000000, -48.000000)" fill="#000000" class="fill" fill-rule="nonzero">
            <path d="M726.662109,159.421875 C730.470703,159.421875 733.166016,156.492188 733.166016,152.742188 C733.166016,150.984375 732.580078,149.34375 731.291016,148.054688 L703.693359,120.398438 C709.494141,112.78125 712.951172,103.347656 712.951172,93.09375 C712.951172,68.3085938 692.677734,48.0351562 667.892578,48.0351562 C643.107422,48.0351562 622.833984,68.3085938 622.833984,93.09375 C622.833984,117.878906 643.107422,138.152344 667.892578,138.152344 C677.677734,138.152344 686.701172,134.988281 694.083984,129.714844 L721.857422,157.488281 C723.146484,158.777344 724.845703,159.421875 726.662109,159.421875 Z M667.892578,128.425781 C648.556641,128.425781 632.560547,112.429688 632.560547,93.09375 C632.560547,73.7578125 648.556641,57.7617188 667.892578,57.7617188 C687.228516,57.7617188 703.224609,73.7578125 703.224609,93.09375 C703.224609,112.429688 687.228516,128.425781 667.892578,128.425781 Z" id="magnifyingglass"></path>
        </g>
    </g>
</svg>