<?xml version="1.0" encoding="UTF-8"?>
<svg width="221px" height="106px" viewBox="0 0 221 106" version="1.1" xmlns="http://www.w3.org/2000/svg" xmlns:xlink="http://www.w3.org/1999/xlink">
    <!-- Generator: Sketch 61.2 (89653) - https://sketch.com -->
    <title>person.3.fill</title>
    <desc>Created with Sketch.</desc>
    <g id="Page-1" stroke="none" stroke-width="1" fill="none" fill-rule="evenodd">
        <g id="asdf" transform="translate(-752.000000, -53.000000)" class="fill" fill="#000000" fill-rule="nonzero">
            <path d="M862.529297,104.109375 C875.068359,104.109375 885.908203,92.859375 885.908203,78.2109375 C885.908203,63.7382812 875.009766,53.015625 862.529297,53.015625 C849.990234,53.015625 839.033203,63.9726562 839.091563,78.328125 C839.091563,92.859375 849.931641,104.109375 862.529297,104.109375 Z M795.029297,105.457031 C805.986328,105.457031 815.419922,95.6132812 815.419922,82.8984375 C815.419922,70.3007812 805.927734,60.984375 795.029297,60.984375 C784.189453,60.984375 774.580078,70.5351562 774.638405,83.015625 C774.638405,95.6132812 784.130859,105.457031 795.029297,105.457031 Z M929.970703,105.457031 C940.927734,105.457031 950.419922,95.6132812 950.419922,83.015625 C950.419922,70.5351562 940.869141,60.984375 929.970703,60.984375 C919.072266,60.984375 909.580078,70.3007812 909.580078,82.8984375 C909.580078,95.6132812 919.072266,105.457031 929.970703,105.457031 Z M806.865234,158.367188 C800.771484,149.519531 808.212891,131.707031 820.869141,121.980469 C814.306641,117.644531 805.927734,114.421875 795.029297,114.421875 C768.603516,114.421875 752.080078,133.933594 752.080078,150.164062 C752.080078,155.4375 754.951172,158.367188 762.392578,158.367188 L806.865234,158.367188 Z M962.607422,158.367188 C970.048828,158.367188 972.919922,155.4375 972.919922,150.164062 C972.919922,133.933594 956.455078,114.421875 930.029297,114.421875 C919.072266,114.421875 910.693359,117.644531 904.130859,121.980469 C916.787109,131.707031 924.228516,149.519531 918.134766,158.367188 L962.607422,158.367188 Z M899.267578,158.367188 C908.525391,158.367188 911.806641,155.730469 911.806641,150.574219 C911.806641,135.457031 892.880859,114.597656 862.470703,114.597656 C832.119141,114.597656 813.193359,135.457031 813.193359,150.574219 C813.193359,155.730469 816.474609,158.367188 825.673828,158.367188 L899.267578,158.367188 Z" id="person.3.fill"></path>
        </g>
    </g>
</svg>