<?xml version="1.0" encoding="UTF-8"?>
<svg width="141px" height="175px" viewBox="0 0 141 175" version="1.1" xmlns="http://www.w3.org/2000/svg" xmlns:xlink="http://www.w3.org/1999/xlink">
    <!-- Generator: Sketch 61.2 (89653) - https://sketch.com -->
    <title>Group 2</title>
    <desc>Created with Sketch.</desc>
    <g id="Page-1" stroke="none" stroke-width="1" fill="none" fill-rule="evenodd">
        <g id="planitor_logo" transform="translate(-1302.000000, -561.000000)" fill="#002EC2">
            <g id="Group-2" transform="translate(1302.000000, 561.000000)">
                <path d="M42.6751907,24.758 C42.8521907,46.802 43.1141907,69.166 43.1141907,69.166 C43.1191907,103.766 43.1151907,138.365 43.1151907,172.963 C43.1151907,173.589 43.1151907,174.215 43.1151907,174.971 C29.0461907,174.971 15.0921907,174.971 0.939190743,174.971 C0.911190743,174.262 0.856190743,173.52 0.856190743,172.778 C0.851190743,143.981 0.235190743,115.254 0.218190743,86.456 C0.213190743,78.106 -0.563809257,64.484 0.845190743,56.488 C2.74619074,45.704 6.64619074,40.115 8.90019074,36.427 C18.7071907,20.378 48.2991907,0.641 48.2991907,0.641 C48.2991907,0.641 42.5331907,7.075 42.6751907,24.758" id="Fill-30"></path>
                <path d="M140.798191,0 C140.798191,17.598 140.800191,34.049 140.800191,51.665 L47.9661907,51.665 C47.9651907,40.874 47.9461907,30.261 47.9661907,19.225 C47.9811907,10.528 50.6631907,0 64.3291907,0 C65.5401907,0 140.798191,0 140.798191,0" id="Fill-31"></path>
                <path d="M94.9451907,65.215 C91.9521907,70.768 90.7271907,79.317 90.4051907,86.243 C90.1321907,92.094 90.3021907,97.982 90.3481907,103.852 C90.4021907,110.643 90.6011907,117.432 90.6191907,124.222 C90.6611907,140.288 90.6331907,156.354 90.6331907,172.419 C90.6331907,173.195 90.6331907,173.971 90.6331907,174.924 C76.5591907,174.924 62.5521907,174.924 48.2281907,174.924 C48.2281907,173.121 48.2281907,171.239 48.2281907,169.357 C48.2281907,159.803 48.3351907,150.247 48.1981907,140.697 C47.9571907,105.403 57.0381907,91.49 65.9201907,82.998 C77.1421907,72.269 94.9451907,65.215 94.9451907,65.215" id="Fill-33"></path>
                <path d="M140.839191,59.58 L140.839191,95.85 C140.839191,104.462 133.858191,111.443 125.246191,111.443 L95.7421907,111.443 L95.7411907,111.442 C95.7491907,103.113 95.7051907,94.784 95.7541907,86.454 C95.7881907,80.657 96.4771907,75.047 99.3201907,70.201 C103.460191,63.143 109.231191,59.732 116.040191,59.453 C124.119191,59.122 132.214191,59.359 140.302191,59.36 C140.459191,59.36 140.615191,59.485 140.839191,59.58" id="Fill-34"></path>
            </g>
        </g>
    </g>
</svg>