<?xml version="1.0" encoding="UTF-8"?>
<svg width="177px" height="169px" viewBox="0 0 177 169" version="1.1" xmlns="http://www.w3.org/2000/svg" xmlns:xlink="http://www.w3.org/1999/xlink">
    <title>Logo Copy 3</title>
    <g id="Logo-Copy-3" stroke="none" stroke-width="1" fill="none" fill-rule="evenodd">
        <g id="Group-2" transform="translate(0.000000, 5.000000)">
            <path d="M13.0578543,137.264097 L163.552974,137.264097 C166.344489,137.264097 168.581024,137.795586 170.447169,138.793611 C172.313314,139.791636 173.777875,141.256198 174.7759,143.122342 C175.773925,144.988487 176.305414,147.225022 176.305414,150.016538 L176.305414,150.511657 C176.305414,153.303172 175.773925,155.539708 174.7759,157.405852 C173.777875,159.271997 172.313314,160.736558 170.447169,161.734583 C168.581024,162.732608 166.344489,163.264097 163.552974,163.264097 L13.0578543,163.264097 C10.2663391,163.264097 8.02980374,162.732608 6.16365907,161.734583 C4.2975144,160.736558 2.83295315,159.271997 1.83492806,157.405852 C0.836902967,155.539708 0.305414044,153.303172 0.305414044,150.511657 L0.305414044,150.016538 C0.305414044,147.225022 0.836902967,144.988487 1.83492806,143.122342 C2.83295315,141.256198 4.2975144,139.791636 6.16365907,138.793611 C8.02980374,137.795586 10.2663391,137.264097 13.0578543,137.264097 Z" id="Rectangle" fill="#AAE0E3"></path>
            <path d="M40.7621373,19.4165503 C118.909785,19.4165503 159.412897,19.4165503 162.271472,19.4165503 C166.559336,19.4165503 168.844208,21.3030965 168.844208,25.9892857 C168.844208,29.1134118 168.844208,32.007962 168.844208,34.6729362" id="Path-2" stroke="#FAFAFB" stroke-width="9" stroke-linecap="round"></path>
            <line x1="7.08892617" y1="134.995726" x2="7.08892617" y2="102.946452" id="Path-3" stroke="#FAFAFB" stroke-width="9" stroke-linecap="round"></line>
            <path d="M7.10109838,81.4654396 L7.10109838,15.5390838 C7.10109838,-5.1796946 40.6840341,-5.1796946 40.6840341,15.5390838 C40.6840341,29.3516027 40.6840341,69.2017248 40.6840341,135.08945 C40.6840341,110.672984 6.34917803,112.631243 7.10109838,135.08945 C7.08689781,150.311044 23.2521204,151.579156 31.3606477,151.579156 C40.6840341,151.579156 154.405065,151.579156 160.300433,151.579156 C166.195801,151.579156 168.844208,149.091215 168.844208,143.035381 C168.844208,138.998158 168.844208,109.967675 168.844208,55.9439312" id="Path" stroke="#FAFAFB" stroke-width="9" stroke-linecap="round" stroke-linejoin="round"></path>
            <line x1="60.5377048" y1="46.5403553" x2="104.278158" y2="46.5403553" id="Path-4" stroke="#FAFAFB" stroke-width="9" stroke-linecap="round" stroke-linejoin="round"></line>
            <line x1="60.5377048" y1="71.545302" x2="104.278158" y2="71.545302" id="Path-4" stroke="#FAFAFB" stroke-width="9" stroke-linecap="round" stroke-linejoin="round"></line>
            <line x1="60.1074275" y1="117.545302" x2="148.84788" y2="117.545302" id="Path-4-Copy" stroke="#FAFAFB" stroke-width="9" stroke-linecap="round" stroke-linejoin="round"></line>
            <line x1="60.5377048" y1="96.545302" x2="149.278158" y2="96.545302" id="Path-4" stroke="#FAFAFB" stroke-width="9" stroke-linecap="round" stroke-linejoin="round"></line>
        </g>
        <path d="M136.993405,48.7507644 L123,62.8313124 L123,78 L151,78 L151,62.7573593 L136.993405,48.7507644 Z" id="Path-8" stroke="#FFFFFF" stroke-width="6" fill="#FFFFFF" stroke-linejoin="round"></path>
    </g>
</svg>