<svg width="630px" height="150px" viewBox="0 0 630 150" version="1.1" xmlns="http://www.w3.org/2000/svg" xmlns:xlink="http://www.w3.org/1999/xlink">
    <title>Planitor Logo</title>
    <g id="Page-1" stroke="none" stroke-width="1" fill="none" fill-rule="evenodd">
        <g id="Artboard" transform="translate(-40.000000, -19.000000)">
            <g id="Group" transform="translate(42.000000, 22.000000)">
                <g id="Group-2-Copy">
                    <path d="M9.68975418,128.700618 L142.870328,128.700618 C145.099125,128.700618 145.907341,128.932683 146.722155,129.36845 C147.53697,129.804218 148.176442,130.443689 148.612209,131.258504 C149.047977,132.073319 149.280041,132.881535 149.280041,135.110331 L149.280041,140.290905 C149.280041,142.519702 149.047977,143.327918 148.612209,144.142733 C148.176442,144.957548 147.53697,145.597019 146.722155,146.032787 C145.907341,146.468554 145.099125,146.700618 142.870328,146.700618 L9.68975418,146.700618 C7.46095734,146.700618 6.65274174,146.468554 5.83792693,146.032787 C5.02311211,145.597019 4.38364068,144.957548 3.94787294,144.142733 C3.51210521,143.327918 3.28004119,142.519702 3.28004119,140.290905 L3.28004119,135.110331 C3.28004119,132.881535 3.51210521,132.073319 3.94787294,131.258504 C4.38364068,130.443689 5.02311211,129.804218 5.83792693,129.36845 C6.65274174,128.932683 7.46095734,128.700618 9.68975418,128.700618 Z" id="Rectangle" fill="#AAC4E3"></path>
                    <path d="M142.790458,15.3034831 C148.120913,15.3034831 151.203742,18.1551188 151.314083,23.5290322 L151.317151,23.8301758 L151.317151,31.7924154 C151.317151,33.1731272 150.197862,34.2924154 148.817151,34.2924154 C147.491667,34.2924154 146.407112,33.2608794 146.322468,31.9567911 L146.317151,31.7924154 L146.317151,23.8301758 C146.317151,21.1524161 145.552662,20.3479248 143.012554,20.305297 L142.790458,20.3034831 L31.3757443,20.3034831 C29.9950324,20.3034831 28.8757443,19.1841949 28.8757443,17.8034831 C28.8757443,16.4779997 29.9072802,15.3934444 31.2113686,15.3088008 L31.3757443,15.3034831 L142.790458,15.3034831 Z" id="Path-2" fill="#FAFAFB" fill-rule="nonzero"></path>
                    <path d="M0.5,91.8939779 C1.8254834,91.8939779 2.91003867,92.9255138 2.99468232,94.2296022 L3,94.3939779 L3,123.780697 C3,125.161408 1.88071187,126.280697 0.5,126.280697 C-0.8254834,126.280697 -1.91003867,125.249161 -1.99468232,123.945072 L-2,123.780697 L-2,94.3939779 C-2,93.013266 -0.880711875,91.8939779 0.5,91.8939779 Z" id="Path-3" fill="#FAFAFB" fill-rule="nonzero"></path>
                    <path d="M55.6888954,40.1739258 C57.0696072,40.1739258 58.1888954,41.2932139 58.1888954,42.6739258 C58.1888954,43.9994092 57.1573594,45.0839645 55.853271,45.1686081 L55.6888954,45.1739258 L47.6745724,45.1739258 C46.2938606,45.1739258 45.1745724,44.0546377 45.1745724,42.6739258 C45.1745724,41.3484424 46.2061084,40.2638871 47.5101967,40.1792435 L47.6745724,40.1739258 L55.6888954,40.1739258 Z" id="Path-4" fill="#FAFAFB" fill-rule="nonzero"></path>
                    <path d="M55.6888954,59.1739258 C57.0696072,59.1739258 58.1888954,60.2932139 58.1888954,61.6739258 C58.1888954,62.9994092 57.1573594,64.0839645 55.853271,64.1686081 L55.6888954,64.1739258 L47.6745724,64.1739258 C46.2938606,64.1739258 45.1745724,63.0546377 45.1745724,61.6739258 C45.1745724,60.3484424 46.2061084,59.2638871 47.5101967,59.1792435 L47.6745724,59.1739258 L55.6888954,59.1739258 Z" id="Path-4" fill="#FAFAFB" fill-rule="nonzero"></path>
                    <path d="M55.6888954,78.2006185 C57.0696072,78.2006185 58.1888954,79.3199066 58.1888954,80.7006185 C58.1888954,82.0261019 57.1573594,83.1106572 55.853271,83.1953008 L55.6888954,83.2006185 L47.6745724,83.2006185 C46.2938606,83.2006185 45.1745724,82.0813304 45.1745724,80.7006185 C45.1745724,79.3751351 46.2061084,78.2905798 47.5101967,78.2059362 L47.6745724,78.2006185 L55.6888954,78.2006185 Z" id="Path-4" fill="#FAFAFB" fill-rule="nonzero"></path>
                    <path d="M55.2943641,97.2006185 C56.675076,97.2006185 57.7943641,98.3199066 57.7943641,99.7006185 C57.7943641,101.026102 56.7628282,102.110657 55.4587398,102.195301 L55.2943641,102.200618 L47.2800412,102.200618 C45.8993293,102.200618 44.7800412,101.08133 44.7800412,99.7006185 C44.7800412,98.3751351 45.8115771,97.2905798 47.1156655,97.2059362 L47.2800412,97.2006185 L55.2943641,97.2006185 Z" id="Path-4-Copy" fill="#FAFAFB" fill-rule="nonzero"></path>
                    <path d="M132.780041,115.200618 C134.160753,115.200618 135.280041,116.319907 135.280041,117.700618 C135.280041,119.026102 134.248505,120.110657 132.944417,120.195301 L132.780041,120.200618 L47.2800412,120.200618 C45.8993293,120.200618 44.7800412,119.08133 44.7800412,117.700618 C44.7800412,116.375135 45.8115771,115.29058 47.1156655,115.205936 L47.2800412,115.200618 L132.780041,115.200618 Z" id="Path-4-Copy" fill="#FAFAFB" fill-rule="nonzero"></path>
                    <path d="M96.1916897,35.4633284 L65.5849189,57.2478336 C63.6017242,58.6593812 64.6003577,61.7846029 67.0345985,61.7846029 L128.24814,61.7846029 C130.682381,61.7846029 131.681014,58.6593812 129.69782,57.2478336 L99.0910489,35.4633284 C98.2232764,34.8456874 97.0594623,34.8456874 96.1916897,35.4633284 Z M97.641,40.568 L120.424,56.784 L74.858,56.784 L97.641,40.568 Z" id="Path-5" fill="#FAFAFB" fill-rule="nonzero"></path>
                    <path d="M74.8191037,59.2846029 L74.819,96.013 L74.8393963,96.11913 C75.0028347,96.9032627 75.4234828,97.1747512 76.6644899,97.1988292 L76.8568641,97.2006185 L120.175406,97.2001976 L120.370326,97.1956179 C121.226524,97.1588424 121.349541,96.8711996 121.362138,94.8533875 L121.363375,59.2846029 L126.363375,59.2846029 L126.363375,94.3939779 C126.363375,99.4387644 124.540521,102.093267 120.329886,102.197429 L120.069104,102.200618 L76.8568641,102.200618 C73.0407665,102.200618 70.449164,100.26927 69.8788043,96.7818271 L69.8406895,96.5238767 L69.8191037,96.3606796 L69.8191037,59.2846029 L74.8191037,59.2846029 Z" id="Path-6" fill="#FAFAFB" fill-rule="nonzero"></path>
                    <path d="M102.796643,73.1683919 C105.665665,73.1683919 108.226218,74.7233801 108.355642,77.7680301 L108.36077,78.0114909 L108.36077,99.7006185 L103.36077,99.7006185 L103.36,78.243 L103.291717,78.2242166 C103.189109,78.1993088 103.065906,78.1803613 102.932739,78.1724443 L102.796643,78.1683919 L93.0303667,78.1683919 C92.8815647,78.1683919 92.7577712,78.1734977 92.657964,78.1801739 L92.596,78.185 L92.5964474,99.7006185 L87.5964474,99.7006185 L87.596,78.039 L87.5927224,77.8936153 C87.5699687,74.9540335 89.6803079,73.2547207 92.7892656,73.1715923 L93.0303667,73.1683919 L102.796643,73.1683919 Z" id="Path-7" fill="#FAFAFB" fill-rule="nonzero"></path>
                    <path d="M15.9076454,-2.5 C25.7398495,-2.5 33.6231616,3.89283785 33.8010582,13.9015863 L33.8041297,14.2481445 L33.8041297,123.866634 C33.8041297,127.199967 28.8041297,127.199967 28.8041297,123.866634 C28.8041297,115.107056 23.1903841,110.032561 15.7211524,110.24792 C8.32795684,110.461086 2.74158351,115.773109 3.01115989,123.868966 C3.00254508,133.103181 10.2985921,136.411991 22.3428657,136.48518 L140.983166,136.486426 C144.98784,136.486426 146.264078,135.310721 146.315516,131.405437 L146.317151,131.152441 L146.317151,42.1270508 C146.317151,40.7463389 147.436439,39.6270508 148.817151,39.6270508 C150.142634,39.6270508 151.227189,40.6585867 151.311833,41.9626751 L151.317151,42.1270508 L151.317151,131.152441 C151.317151,137.923117 147.934088,141.370519 141.322148,141.483552 L140.983166,141.486426 L22.7553016,141.486426 C17.0204632,141.486426 12.1082553,140.826559 7.83479579,138.949311 C1.63016532,136.223737 -1.99570859,131.228957 -1.98743899,123.950289 C-2.3528015,113.037715 5.53256193,105.539607 15.5770484,105.249997 C20.7918988,105.099638 25.4355767,106.917984 28.7306596,110.287675 L28.804,110.364 L28.8041297,14.2481445 C28.8041297,7.1488116 23.4470382,2.6361534 16.2366543,2.50302868 L15.9076454,2.5 C8.64190538,2.5 3.17636999,6.906698 3.01483825,13.9272353 L3.01116098,14.2481445 L3.01116098,85.7006185 C3.01116098,87.0813304 1.89187285,88.2006185 0.511160977,88.2006185 C-0.814322423,88.2006185 -1.8988777,87.1690826 -1.98352134,85.8649942 L-1.98883902,85.7006185 L-1.98883902,14.2481445 C-1.98883902,4.04064424 5.96242737,-2.5 15.9076454,-2.5 Z" id="Path" fill="#FAFAFB" fill-rule="nonzero"></path>
                </g>
                <path d="M228.1,117.6 C232.18,117.6 235.18,114.72 235.18,110.16 L235.18,86.88 C235.18,86.4 235.42,86.16 235.9,86.16 L252.82,86.16 C268.66,86.16 279.7,75.96 279.7,60.72 C279.7,45.6 268.66,35.4 252.82,35.4 L227.26,35.4 C223.42,35.4 221.02,37.92 221.02,41.76 L221.02,110.16 C221.02,114.72 224.02,117.6 228.1,117.6 Z M251.98,73.32 L235.9,73.32 C235.42,73.32 235.18,73.08 235.18,72.6 L235.18,48.84 C235.18,48.36 235.42,48.12 235.9,48.12 L251.98,48.12 C260.38,48.12 265.54,53.28 265.54,60.72 C265.54,68.28 260.38,73.32 251.98,73.32 Z M309.1,117.72 C313.9,117.72 316.06,115.08 316.06,111.6 C316.06,108.6 314.38,106.2 310.42,105.72 C307.06,105.24 305.74,103.8 305.74,99.72 L305.74,41.88 C305.74,37.44 302.86,34.8 299.02,34.8 C295.06,34.8 292.3,37.44 292.3,41.88 L292.3,100.8 C292.3,111.84 296.38,117.72 308.14,117.72 L309.1,117.72 Z M345.82,118.32 C353.62,118.32 359.5,115.92 362.86,111.96 L362.98,111.96 L364.9,114.84 C366.22,116.76 368.14,117.6 370.54,117.6 C374.38,117.6 377.26,114.96 377.26,111.36 C377.26,110.04 376.9,108.72 376.18,107.4 L374.38,104.28 C373.54,102.72 373.18,101.52 373.18,98.52 L373.18,80.28 C373.18,66 365.38,57.84 348.94,57.84 C341.02,57.84 335.02,59.64 331.3,61.8 C328.9,63 327.94,65.16 327.94,67.08 C327.94,70.44 330.22,72.6 333.46,72.6 C334.54,72.6 335.74,72.36 336.94,71.88 C339.46,70.68 343.42,69.48 347.5,69.48 C356.62,69.48 360.46,73.44 360.46,80.16 L360.46,81.6 C360.46,82.08 360.22,82.32 359.74,82.32 L347.86,82.32 C333.58,82.32 324.82,88.32 324.82,100.8 C324.82,111.84 332.14,118.32 345.82,118.32 Z M347.74,107.4 C341.14,107.4 337.66,105 337.66,100.2 C337.66,94.92 341.26,92.4 350.14,92.4 L359.74,92.4 C360.22,92.4 360.46,92.64 360.46,93.12 L360.46,98.28 C360.46,104.4 355.54,107.4 347.74,107.4 Z M432.34,117.6 C436.3,117.6 439.06,114.96 439.06,110.52 L439.06,79.32 C439.06,66.96 431.38,57.84 419.02,57.84 C412.18,57.84 406.78,60.36 403.78,64.56 L403.66,64.56 C403.06,61.08 400.9,58.56 396.94,58.56 C392.98,58.56 390.22,61.2 390.22,65.64 L390.22,110.52 C390.22,114.96 392.98,117.6 396.94,117.6 C400.9,117.6 403.66,114.96 403.66,110.52 L403.66,82.44 C403.66,75 407.62,69.84 414.7,69.84 C422.02,69.84 425.62,75 425.62,82.44 L425.62,110.52 C425.62,114.96 428.38,117.6 432.34,117.6 Z M462.7,50.4 C467.14,50.4 470.74,46.8 470.74,42.36 C470.74,37.92 467.14,34.32 462.7,34.32 C458.26,34.32 454.66,37.92 454.66,42.36 C454.66,46.8 458.26,50.4 462.7,50.4 Z M462.7,117.6 C466.66,117.6 469.42,114.96 469.42,110.52 L469.42,65.64 C469.42,61.2 466.66,58.56 462.7,58.56 C458.74,58.56 455.98,61.2 455.98,65.64 L455.98,110.52 C455.98,114.96 458.74,117.6 462.7,117.6 Z M506.26,117.72 C511.18,117.72 513.58,115.08 513.58,111.72 C513.58,108.72 511.66,106.08 507.46,105.72 C502.54,105.24 501.22,103.8 501.22,99.12 L501.22,70.32 C501.22,69.84 501.46,69.6 501.94,69.6 L508.06,69.6 C511.42,69.6 513.58,67.56 513.58,64.44 C513.58,61.32 511.42,59.16 508.06,59.16 L501.94,59.16 C501.46,59.16 501.22,58.92 501.22,58.44 L501.22,47.88 C501.22,43.44 498.46,40.8 494.62,40.8 C490.66,40.8 487.78,43.44 487.78,47.88 L487.78,58.44 C487.78,58.92 487.42,59.16 486.94,59.16 L485.26,59.16 C481.9,59.16 479.74,61.32 479.74,64.44 C479.74,67.56 481.9,69.6 485.26,69.6 L486.94,69.6 C487.42,69.6 487.78,69.84 487.78,70.32 L487.78,99.48 C487.78,112.08 492.58,117.72 505.18,117.72 L506.26,117.72 Z M548.26,118.32 C559.9,118.32 568.78,112.44 572.02,102.36 C573.34,98.28 573.94,94.44 573.94,88.08 C573.94,81.72 573.34,77.88 572.02,73.8 C568.78,63.72 559.9,57.84 548.26,57.84 C536.5,57.84 527.62,63.72 524.38,73.8 C523.06,77.88 522.46,81.72 522.46,88.08 C522.46,94.44 523.06,98.28 524.38,102.36 C527.62,112.44 536.5,118.32 548.26,118.32 Z M548.26,106.32 C542.86,106.32 539.02,103.56 537.34,98.76 C536.413103,95.8634483 536.157408,93.1906302 536.140876,88.5813588 L536.14,88.08 C536.14,83.16 536.38,80.52 537.34,77.4 C539.02,72.6 542.86,69.84 548.26,69.84 C553.66,69.84 557.38,72.6 559.06,77.4 C560.02,80.52 560.26,83.16 560.26,88.08 C560.26,93 560.02,95.76 559.06,98.76 C557.38,103.56 553.66,106.32 548.26,106.32 Z M595.06,117.6 C599.02,117.6 601.78,114.96 601.78,110.52 L601.78,110.52 L601.78,84.84 C601.78,76.08 604.9,70.2 612.34,70.2 C614.14,70.2 616.06,70.68 617.74,71.16 C618.82,71.52 619.9,71.76 620.86,71.76 C624.82,71.76 627.46,68.88 627.46,64.92 C627.46,62.64 626.38,60.72 623.86,59.4 C622.06,58.56 619.78,57.84 616.54,57.84 C609.7,57.84 604.42,61.44 601.9,65.88 L601.9,65.88 L601.78,65.88 L601.78,65.64 C601.78,61.2 599.02,58.56 595.06,58.56 C591.1,58.56 588.34,61.2 588.34,65.64 L588.34,65.64 L588.34,110.52 C588.34,114.96 591.22,117.6 595.06,117.6 Z" id="Planitor" fill="#FFFFFF" fill-rule="nonzero"></path>
            </g>
        </g>
    </g>
</svg>