<svg width="630" height="150" viewBox="0 0 630 150" fill="none" xmlns="http://www.w3.org/2000/svg">
<path fill-rule="evenodd" clip-rule="evenodd" d="M6.27801 133H136.722C138.905 133 139.697 133.219 140.495 133.631C141.293 134.042 141.919 134.646 142.346 135.416C142.773 136.185 143 136.949 143 139.054V143.946C143 146.051 142.773 146.815 142.346 147.584C141.919 148.354 141.293 148.958 140.495 149.369C139.697 149.781 138.905 150 136.722 150H6.27801C4.09501 150 3.3034 149.781 2.50533 149.369C1.70725 148.958 1.08092 148.354 0.654109 147.584C0.227295 146.815 0 146.051 0 143.946V139.054C0 136.949 0.227295 136.185 0.654109 135.416C1.08092 134.646 1.70725 134.042 2.50533 133.631C3.3034 133.219 4.09501 133 6.27801 133Z" fill="#AAE0E3"/>
<path d="M144.79 18.3035C150.121 18.3035 153.204 21.1551 153.314 26.529L153.317 26.8302V34.7924C153.317 36.1731 152.198 37.2924 150.817 37.2924C149.492 37.2924 148.407 36.2609 148.322 34.9568L148.317 34.7924V26.8302C148.317 24.1524 147.553 23.3479 145.013 23.3053L144.79 23.3035H33.3757C31.995 23.3035 30.8757 22.1842 30.8757 20.8035C30.8757 19.478 31.9073 18.3934 33.2114 18.3088L33.3757 18.3035H144.79Z" fill="#FAFAFB"/>
<path d="M2.5 94.8939C3.82548 94.8939 4.91004 95.9255 4.99468 97.2295L5 97.3939V126.781C5 128.161 3.88071 129.281 2.5 129.281C1.17452 129.281 0.0899613 128.249 0.00531769 126.945L0 126.781V97.3939C0 96.0132 1.11929 94.8939 2.5 94.8939Z" fill="#FAFAFB"/>
<path d="M57.6889 43.174C59.0696 43.174 60.1889 44.2932 60.1889 45.674C60.1889 46.9994 59.1574 48.084 57.8533 48.1686L57.6889 48.174H49.6746C48.2939 48.174 47.1746 47.0547 47.1746 45.674C47.1746 44.3485 48.2061 43.2639 49.5102 43.1793L49.6746 43.174H57.6889Z" fill="#FAFAFB"/>
<path d="M57.6889 62.174C59.0696 62.174 60.1889 63.2932 60.1889 64.674C60.1889 65.9994 59.1574 67.084 57.8533 67.1686L57.6889 67.174H49.6746C48.2939 67.174 47.1746 66.0547 47.1746 64.674C47.1746 63.3485 48.2061 62.2639 49.5102 62.1793L49.6746 62.174H57.6889Z" fill="#FAFAFB"/>
<path d="M57.6889 81.2006C59.0696 81.2006 60.1889 82.3198 60.1889 83.7006C60.1889 85.026 59.1574 86.1106 57.8533 86.1952L57.6889 86.2006H49.6746C48.2939 86.2006 47.1746 85.0813 47.1746 83.7006C47.1746 82.3751 48.2061 81.2905 49.5102 81.2059L49.6746 81.2006H57.6889Z" fill="#FAFAFB"/>
<path d="M57.2944 100.201C58.6751 100.201 59.7944 101.32 59.7944 102.701C59.7944 104.026 58.7628 105.111 57.4587 105.195L57.2944 105.201H49.28C47.8993 105.201 46.78 104.081 46.78 102.701C46.78 101.375 47.8116 100.291 49.1157 100.206L49.28 100.201H57.2944Z" fill="#FAFAFB"/>
<path d="M134.78 118.201C136.161 118.201 137.28 119.32 137.28 120.701C137.28 122.026 136.249 123.111 134.944 123.195L134.78 123.201H49.28C47.8993 123.201 46.78 122.081 46.78 120.701C46.78 119.375 47.8116 118.291 49.1157 118.206L49.28 118.201H134.78Z" fill="#FAFAFB"/>
<path d="M98.1917 38.4634L67.5849 60.2479C65.6017 61.6594 66.6004 64.7846 69.0346 64.7846H130.248C132.682 64.7846 133.681 61.6594 131.698 60.2479L101.091 38.4634C100.223 37.8457 99.0595 37.8457 98.1917 38.4634ZM99.641 43.568L122.424 59.784H76.858L99.641 43.568Z" fill="#FAFAFB"/>
<path d="M76.8191 62.2845L76.819 99.0129L76.8394 99.1191C77.0028 99.9032 77.4235 100.175 78.6645 100.199L78.8569 100.201L122.175 100.2L122.37 100.196C123.227 100.159 123.35 99.8711 123.362 97.8533L123.363 62.2845H128.363V97.3939C128.363 102.439 126.541 105.093 122.33 105.197L122.069 105.201H78.8569C75.0408 105.201 72.4492 103.269 71.8788 99.7818L71.8407 99.5238L71.8191 99.3606V62.2845H76.8191Z" fill="#FAFAFB"/>
<path d="M104.797 76.1683C107.666 76.1683 110.226 77.7233 110.356 80.768L110.361 81.0114V102.701H105.361L105.36 81.2429L105.292 81.2242C105.189 81.1993 105.066 81.1803 104.933 81.1724L104.797 81.1683H95.0304C94.8816 81.1683 94.7578 81.1734 94.658 81.1801L94.596 81.1849L94.5964 102.701H89.5964L89.596 81.0389L89.5927 80.8936C89.57 77.954 91.6803 76.2547 94.7893 76.1715L95.0304 76.1683H104.797Z" fill="#FAFAFB"/>
<path d="M17.9077 0.5C27.7399 0.5 35.6232 6.89284 35.8011 16.9016L35.8041 17.2481V126.867C35.8041 130.2 30.8041 130.2 30.8041 126.867C30.8041 118.107 25.1904 113.033 17.7212 113.248C10.328 113.461 4.74159 118.773 5.01117 126.869C5.00255 136.103 12.2986 139.412 24.3429 139.485L142.983 139.486C146.988 139.486 148.264 138.311 148.316 134.405L148.317 134.152V45.1271C148.317 43.7463 149.436 42.6271 150.817 42.6271C152.143 42.6271 153.227 43.6586 153.312 44.9627L153.317 45.1271V134.152C153.317 140.923 149.934 144.371 143.322 144.484L142.983 144.486H24.7553C19.0205 144.486 14.1083 143.827 9.8348 141.949C3.63017 139.224 0.00429792 134.229 0.0125675 126.95C-0.352795 116.038 7.53257 108.54 17.5771 108.25C22.7919 108.1 27.4356 109.918 30.7307 113.288L30.804 113.364L30.8041 17.2481C30.8041 10.1488 25.447 5.63615 18.2367 5.50303L17.9077 5.5C10.6419 5.5 5.17638 9.9067 5.01484 16.9272L5.01117 17.2481V88.7006C5.01117 90.0813 3.89188 91.2006 2.51117 91.2006C1.18568 91.2006 0.101129 90.1691 0.0164852 88.865L0.0111675 88.7006V17.2481C0.0111675 7.04064 7.96243 0.5 17.9077 0.5Z" fill="#FAFAFB"/>
<path d="M217.2 115C216.533 115 215.967 114.767 215.5 114.3C215.033 113.833 214.8 113.267 214.8 112.6V47.5C214.8 46.7667 215 46.1667 215.4 45.7C215.867 45.2334 216.467 45 217.2 45H244C252 45 258.3 46.9 262.9 50.7C267.5 54.4334 269.8 59.9334 269.8 67.2C269.8 74.4667 267.5 79.9667 262.9 83.7C258.367 87.3667 252.067 89.2 244 89.2H229.1V112.6C229.1 113.267 228.867 113.833 228.4 114.3C228 114.767 227.433 115 226.7 115H217.2ZM243.5 78.1C247.367 78.1 250.333 77.2 252.4 75.4C254.467 73.5334 255.5 70.8 255.5 67.2C255.5 63.7334 254.5 61.0334 252.5 59.1C250.5 57.1 247.5 56.1 243.5 56.1H228.9V78.1H243.5Z" fill="white"/>
<path d="M282.018 115C281.351 115 280.785 114.767 280.318 114.3C279.851 113.833 279.618 113.267 279.618 112.6V46.4C279.618 45.6667 279.851 45.1 280.318 44.7C280.785 44.2334 281.351 44 282.018 44H290.318C291.051 44 291.618 44.2334 292.018 44.7C292.485 45.1 292.718 45.6667 292.718 46.4V112.6C292.718 113.267 292.485 113.833 292.018 114.3C291.618 114.767 291.051 115 290.318 115H282.018Z" fill="white"/>
<path d="M321.083 116C317.683 116 314.549 115.333 311.683 114C308.883 112.6 306.649 110.733 304.983 108.4C303.383 106.067 302.583 103.5 302.583 100.7C302.583 96.1667 304.416 92.5 308.083 89.7C311.749 86.9 316.783 85 323.183 84L336.883 82V79.9C336.883 76.9667 336.149 74.7667 334.683 73.3C333.216 71.8334 330.849 71.1 327.583 71.1C325.383 71.1 323.583 71.5334 322.183 72.4C320.849 73.2 319.783 74 318.983 74.8C318.183 75.6667 317.649 76.2334 317.383 76.5C317.116 77.3 316.616 77.7 315.883 77.7H308.183C307.583 77.7 307.049 77.5 306.583 77.1C306.183 76.7 305.983 76.1667 305.983 75.5C306.049 73.8334 306.849 71.9334 308.383 69.8C309.983 67.6667 312.416 65.8334 315.683 64.3C318.949 62.7667 322.949 62 327.683 62C335.549 62 341.283 63.7667 344.883 67.3C348.483 70.8334 350.283 75.4667 350.283 81.2V112.6C350.283 113.267 350.049 113.833 349.583 114.3C349.183 114.767 348.616 115 347.883 115H339.783C339.116 115 338.549 114.767 338.083 114.3C337.616 113.833 337.383 113.267 337.383 112.6V108.7C335.916 110.833 333.816 112.6 331.083 114C328.416 115.333 325.083 116 321.083 116ZM324.483 106.5C328.149 106.5 331.149 105.3 333.483 102.9C335.816 100.5 336.983 97 336.983 92.4V90.3L326.983 91.9C323.116 92.5 320.183 93.4667 318.183 94.8C316.249 96.1334 315.283 97.7667 315.283 99.7C315.283 101.833 316.183 103.5 317.983 104.7C319.783 105.9 321.949 106.5 324.483 106.5Z" fill="white"/>
<path d="M365.512 115C364.845 115 364.278 114.767 363.812 114.3C363.345 113.833 363.112 113.267 363.112 112.6V65.4C363.112 64.7334 363.345 64.1667 363.812 63.7C364.278 63.2334 364.845 63 365.512 63H373.712C374.378 63 374.945 63.2334 375.412 63.7C375.878 64.1667 376.112 64.7334 376.112 65.4V69.5C380.045 64.5 385.612 62 392.812 62C398.945 62 403.812 64.0334 407.412 68.1C411.012 72.1 412.812 77.5667 412.812 84.5V112.6C412.812 113.267 412.578 113.833 412.112 114.3C411.712 114.767 411.145 115 410.412 115H401.612C400.945 115 400.378 114.767 399.912 114.3C399.445 113.833 399.212 113.267 399.212 112.6V85.1C399.212 81.1667 398.245 78.1334 396.312 76C394.445 73.8 391.712 72.7 388.112 72.7C384.578 72.7 381.778 73.8 379.712 76C377.712 78.2 376.712 81.2334 376.712 85.1V112.6C376.712 113.267 376.478 113.833 376.012 114.3C375.612 114.767 375.045 115 374.312 115H365.512Z" fill="white"/>
<path d="M427.514 54.4C426.847 54.4 426.281 54.1667 425.814 53.7C425.347 53.2334 425.114 52.6667 425.114 52V44.8C425.114 44.1334 425.347 43.5667 425.814 43.1C426.281 42.6334 426.847 42.4 427.514 42.4H436.614C437.281 42.4 437.847 42.6334 438.314 43.1C438.847 43.5667 439.114 44.1334 439.114 44.8V52C439.114 52.6667 438.881 53.2334 438.414 53.7C437.947 54.1667 437.347 54.4 436.614 54.4H427.514ZM427.914 115C427.247 115 426.681 114.767 426.214 114.3C425.747 113.833 425.514 113.267 425.514 112.6V65.4C425.514 64.7334 425.747 64.1667 426.214 63.7C426.681 63.2334 427.247 63 427.914 63H436.214C436.947 63 437.514 63.2334 437.914 63.7C438.381 64.1 438.614 64.6667 438.614 65.4V112.6C438.614 113.267 438.381 113.833 437.914 114.3C437.514 114.767 436.947 115 436.214 115H427.914Z" fill="white"/>
<path d="M475.381 115C469.315 115 464.748 113.433 461.681 110.3C458.681 107.1 457.181 102.433 457.181 96.3V73.6H449.281C448.615 73.6 448.048 73.3667 447.581 72.9C447.115 72.3667 446.881 71.7667 446.881 71.1V65.4C446.881 64.7334 447.115 64.1667 447.581 63.7C448.048 63.2334 448.615 63 449.281 63H457.181V46.4C457.181 45.6667 457.415 45.1 457.881 44.7C458.348 44.2334 458.915 44 459.581 44H467.681C468.415 44 468.981 44.2334 469.381 44.7C469.848 45.1 470.081 45.6667 470.081 46.4V63H482.581C483.315 63 483.881 63.2334 484.281 63.7C484.748 64.1 484.981 64.6667 484.981 65.4V71.1C484.981 71.8334 484.748 72.4334 484.281 72.9C483.815 73.3667 483.248 73.6 482.581 73.6H470.081V95.3C470.081 98.1667 470.581 100.333 471.581 101.8C472.581 103.267 474.248 104 476.581 104H483.481C484.148 104 484.715 104.233 485.181 104.7C485.648 105.167 485.881 105.733 485.881 106.4V112.6C485.881 113.267 485.648 113.833 485.181 114.3C484.781 114.767 484.215 115 483.481 115H475.381Z" fill="white"/>
<path d="M517.752 116C509.952 116 503.919 114 499.652 110C495.386 105.933 493.086 100.4 492.752 93.4L492.652 89L492.752 84.6C493.086 77.6667 495.419 72.1667 499.752 68.1C504.086 64.0334 510.086 62 517.752 62C525.419 62 531.419 64.0334 535.752 68.1C540.086 72.1667 542.419 77.6667 542.752 84.6C542.819 85.4 542.852 86.8667 542.852 89C542.852 91.1334 542.819 92.6 542.752 93.4C542.419 100.4 540.119 105.933 535.852 110C531.586 114 525.552 116 517.752 116ZM517.752 106.1C521.286 106.1 524.019 105 525.952 102.8C527.886 100.533 528.952 97.2334 529.152 92.9C529.219 92.2334 529.252 90.9334 529.252 89C529.252 87.0667 529.219 85.7667 529.152 85.1C528.952 80.7667 527.886 77.5 525.952 75.3C524.019 73.0334 521.286 71.9 517.752 71.9C514.219 71.9 511.486 73.0334 509.552 75.3C507.619 77.5 506.552 80.7667 506.352 85.1L506.252 89L506.352 92.9C506.552 97.2334 507.619 100.533 509.552 102.8C511.486 105 514.219 106.1 517.752 106.1Z" fill="white"/>
<path d="M556.332 115C555.665 115 555.099 114.767 554.632 114.3C554.165 113.833 553.932 113.267 553.932 112.6V65.5C553.932 64.8334 554.165 64.2667 554.632 63.8C555.099 63.2667 555.665 63 556.332 63H564.432C565.165 63 565.765 63.2334 566.232 63.7C566.699 64.1667 566.932 64.7667 566.932 65.5V69.6C568.532 67.4667 570.532 65.8334 572.932 64.7C575.399 63.5667 578.199 63 581.332 63H585.432C586.165 63 586.732 63.2334 587.132 63.7C587.599 64.1 587.832 64.6667 587.832 65.4V72.6C587.832 73.2667 587.599 73.8334 587.132 74.3C586.732 74.7667 586.165 75 585.432 75H577.632C574.499 75 572.032 75.9 570.232 77.7C568.432 79.5 567.532 81.9667 567.532 85.1V112.6C567.532 113.267 567.299 113.833 566.832 114.3C566.365 114.767 565.765 115 565.032 115H556.332Z" fill="white"/>
</svg>
