<?xml version="1.0" encoding="UTF-8"?>
<svg width="29px" height="25px" viewBox="0 0 29 25" version="1.1" xmlns="http://www.w3.org/2000/svg" xmlns:xlink="http://www.w3.org/1999/xlink">
    <title>Artboard</title>
    <g id="Artboard" stroke="none" stroke-width="1" fill="none" fill-rule="evenodd">
        <path d="M24.9666531,7.99033571 C27.1720211,7.99033571 29,6.17700916 29,3.98931841 C29,1.81332655 27.1720211,0 24.9666531,0 C22.7612851,0 20.9450996,1.81332655 20.9450996,3.98931841 C20.9450996,6.17700916 22.7612851,7.99033571 24.9666531,7.99033571 Z M23.2801952,23 C25.8275722,23 27.3253355,21.5142421 27.3253355,18.8468973 L27.3253355,9.23041709 C26.4172428,9.67497457 25.4265962,9.82706002 24.4123627,9.68667345 L24.4123627,17.887589 L18.6571777,12.2136317 L22.0183001,8.93794507 C21.2871086,8.51678535 20.6502643,7.89674466 20.2021147,7.1948118 L14.8596991,12.4359105 C14.399756,12.880468 14.0577471,13.0676501 13.6685645,13.0676501 C13.2911753,13.0676501 12.9491663,12.880468 12.4774298,12.4359105 L4.58763725,4.69125127 L19.2704351,4.69125127 C19.0817405,3.72024415 19.2232615,2.63224822 19.6478243,1.74313327 L4.0451403,1.74313327 C1.49776332,1.74313327 0,3.21719227 0,5.89623601 L0,18.8468973 C0,21.525941 1.49776332,23 4.21024807,23 L23.2801952,23 Z M2.91297275,17.9109868 L2.91297275,6.58646999 L8.6799512,12.2253306 L2.91297275,17.9109868 Z M22.9853599,20.051882 L4.35176901,20.051882 L10.4961366,13.9918616 L10.9089061,14.4013225 C11.8052054,15.2787386 12.7015047,15.6765005 13.6685645,15.6765005 C14.6356242,15.6765005 15.5319235,15.2670397 16.4282229,14.4013225 L16.8409923,13.9918616 L22.9853599,20.051882 Z" id="mail" fill="#27226B" fill-rule="nonzero"></path>
    </g>
</svg>